<svg width="40" height="37" viewBox="0 0 40 37" fill="none" xmlns="http://www.w3.org/2000/svg">
<path d="M25.8369 15.9274C25.8484 16.0211 25.8557 16.1155 25.8588 16.2102C25.8588 16.7999 25.2465 18.5324 23.2219 19.0982C23.8329 19.3684 24.827 19.3457 25.2374 19.2154C25.6386 21.3371 24.9702 23.0228 24.6547 23.3762C23.0039 25.2275 21.5775 27.2654 22.3997 28.7971C23.295 30.4662 25.9254 29.3983 27.2723 27.1002C27.157 29.2312 26.7336 31.8857 26.2854 34.1184C25.9911 35.584 26.8927 37 28.1166 37H32.1278C33.9406 33.2057 34.9805 28.7817 34.9805 24.0593C34.9825 21.2949 34.6205 18.5486 33.9085 15.9274H37.5912C39.1206 15.9274 39.6375 13.407 38.2928 12.5104L29.334 6.53528L19.5333 0L9.73519 6.53528L0.775454 12.5104C-0.570584 13.407 -0.053564 15.9274 1.47585 15.9274H5.15971C4.44757 18.5485 4.08553 21.2949 4.08774 24.0593C4.08774 28.7817 5.1273 33.2057 6.94017 37H10.9501C12.1743 37 13.0756 35.584 12.7816 34.1184C12.3331 31.8857 11.9096 29.2312 11.7944 27.1002C13.1416 29.3983 15.7719 30.4662 16.6669 28.7971C17.4891 27.2654 16.0628 25.2275 14.4119 23.3762C14.0964 23.0228 13.4281 21.3371 13.8295 19.2154C14.24 19.3457 15.2337 19.3684 15.8451 19.0982C13.8205 18.5324 13.2083 16.7999 13.2083 16.2102C13.2113 16.1155 13.2186 16.0211 13.2301 15.9274C13.3054 15.2287 13.6 13.4807 14.3499 11.7736C13.9816 11.6786 13.6551 11.4185 13.4334 11.0436C13.2116 10.6686 13.1106 10.2056 13.1497 9.74405C13.2228 8.85745 13.8155 8.14333 14.5358 8.07261C14.8482 8.0404 15.161 8.12834 15.4312 8.32433C15.7014 8.52032 15.9157 8.81475 16.0447 9.16713C16.6739 8.52784 17.4155 8.07897 18.2104 7.85641C18.2993 7.83172 18.3915 7.8307 18.4808 7.85341C18.5701 7.87613 18.6544 7.92206 18.7282 7.98814C18.8019 8.05423 18.8634 8.13895 18.9085 8.23666C18.9537 8.33437 18.9814 8.44282 18.9899 8.55479C19.0989 9.98769 19.1378 12.3041 19.1036 12.6744C19.0655 13.0874 17.4561 14.8964 17.1902 15.9274C17.1599 16.0291 17.1477 16.1375 17.1543 16.2455C17.2406 17.1649 18.8021 17.9612 19.5333 17.9612C20.2649 17.9612 21.8263 17.1649 21.9126 16.2455C21.9191 16.1376 21.907 16.0292 21.8771 15.9274C21.6121 14.8964 20.0023 13.0874 19.9634 12.6744C19.9289 12.3041 19.9691 9.98769 20.0771 8.55479C20.0857 8.44291 20.1135 8.33458 20.1586 8.23697C20.2037 8.13936 20.2652 8.05472 20.3389 7.98866C20.4126 7.92261 20.4968 7.87666 20.586 7.85385C20.6752 7.83105 20.7674 7.83192 20.8563 7.85641L25.8369 15.9274ZM24.5324 8.07261C25.2901 8.14759 25.8964 8.93391 25.9241 9.87007L24.5324 8.07261ZM19.5336 14.8314C19.5336 15.0761 19.2518 15.274 18.903 15.274C18.5557 15.274 18.2727 15.0761 18.2727 14.8314C18.2727 14.5883 18.5557 14.3901 18.903 14.3901C19.2518 14.3901 19.5336 14.5883 19.5336 14.8314Z" fill="#2B67F6"/>
<path d="M11.4344 8.07261L20.6308 4.80389L29.3537 9.87006L28.948 37H10.9501" fill="#2B67F6"/>
<path d="M27 14C25.6328 15.7979 23.8503 20.6716 22.967 22.4248C22.3213 23.7064 21.9334 24.7437 20.3979 25.0768C18.8484 25.4129 17.3594 24.0854 16.1684 22.6682C14.2924 20.4361 13.3575 16.6042 13.0211 15.5065C12.7391 20.2029 15.3545 29.6079 16.5132 32C18.1728 31.3337 21.2206 29.8146 25.7127 30.8984C25.1858 27.2166 25.6819 18.7695 27 14Z" fill="white"/>
<path d="M22.063 22.588C22.4563 21.1226 21.812 19.5413 20.624 19.0562C19.4359 18.5711 18.1541 19.3659 17.7608 20.8314C17.3676 22.2968 18.0118 23.878 19.1999 24.3631C20.3879 24.8482 21.6698 24.0535 22.063 22.588Z" fill="white"/>
</svg>
