<svg width="166" height="40" viewBox="0 0 166 40" fill="none" xmlns="http://www.w3.org/2000/svg">
<path d="M67.2598 20.5781V23.4932H55.9365V20.5781H67.2598ZM56.8447 11.6719V33H53.168V11.6719H56.8447ZM70.0869 11.6719V33H66.4248V11.6719H70.0869ZM73.4414 25.251V24.9141C73.4414 23.7715 73.6074 22.7119 73.9395 21.7354C74.2715 20.749 74.75 19.8945 75.375 19.1719C76.0098 18.4395 76.7812 17.873 77.6895 17.4727C78.6074 17.0625 79.6426 16.8574 80.7949 16.8574C81.957 16.8574 82.9922 17.0625 83.9004 17.4727C84.8184 17.873 85.5947 18.4395 86.2295 19.1719C86.8643 19.8945 87.3477 20.749 87.6797 21.7354C88.0117 22.7119 88.1777 23.7715 88.1777 24.9141V25.251C88.1777 26.3936 88.0117 27.4531 87.6797 28.4297C87.3477 29.4062 86.8643 30.2607 86.2295 30.9932C85.5947 31.7158 84.8232 32.2822 83.915 32.6924C83.0068 33.0928 81.9766 33.293 80.8242 33.293C79.6621 33.293 78.6221 33.0928 77.7041 32.6924C76.7959 32.2822 76.0244 31.7158 75.3896 30.9932C74.7549 30.2607 74.2715 29.4062 73.9395 28.4297C73.6074 27.4531 73.4414 26.3936 73.4414 25.251ZM76.9717 24.9141V25.251C76.9717 25.9639 77.0449 26.6377 77.1914 27.2725C77.3379 27.9072 77.5674 28.4639 77.8799 28.9424C78.1924 29.4209 78.5928 29.7969 79.0811 30.0703C79.5693 30.3438 80.1504 30.4805 80.8242 30.4805C81.4785 30.4805 82.0449 30.3438 82.5234 30.0703C83.0117 29.7969 83.4121 29.4209 83.7246 28.9424C84.0371 28.4639 84.2666 27.9072 84.4131 27.2725C84.5693 26.6377 84.6475 25.9639 84.6475 25.251V24.9141C84.6475 24.2109 84.5693 23.5469 84.4131 22.9219C84.2666 22.2871 84.0322 21.7256 83.71 21.2373C83.3975 20.749 82.9971 20.3682 82.5088 20.0947C82.0303 19.8115 81.459 19.6699 80.7949 19.6699C80.1309 19.6699 79.5547 19.8115 79.0664 20.0947C78.5879 20.3682 78.1924 20.749 77.8799 21.2373C77.5674 21.7256 77.3379 22.2871 77.1914 22.9219C77.0449 23.5469 76.9717 24.2109 76.9717 24.9141ZM94.667 20.373V33H91.1367V17.1504H94.4619L94.667 20.373ZM94.0957 24.4893L92.8945 24.4746C92.8945 23.3809 93.0312 22.3701 93.3047 21.4424C93.5781 20.5146 93.9785 19.709 94.5059 19.0254C95.0332 18.332 95.6875 17.7998 96.4688 17.4287C97.2598 17.0479 98.1729 16.8574 99.208 16.8574C99.9307 16.8574 100.59 16.9648 101.186 17.1797C101.791 17.3848 102.313 17.7119 102.753 18.1611C103.202 18.6104 103.544 19.1865 103.778 19.8896C104.022 20.5928 104.145 21.4424 104.145 22.4385V33H100.614V22.7461C100.614 21.9746 100.497 21.3691 100.263 20.9297C100.038 20.4902 99.7109 20.1777 99.2812 19.9922C98.8613 19.7969 98.3584 19.6992 97.7725 19.6992C97.1084 19.6992 96.542 19.8262 96.0732 20.0801C95.6143 20.334 95.2383 20.6807 94.9453 21.1201C94.6523 21.5596 94.4375 22.0674 94.3008 22.6436C94.1641 23.2197 94.0957 23.835 94.0957 24.4893ZM103.925 23.5518L102.27 23.918C102.27 22.9609 102.401 22.0576 102.665 21.208C102.938 20.3486 103.334 19.5967 103.852 18.9521C104.379 18.2979 105.028 17.7852 105.8 17.4141C106.571 17.043 107.455 16.8574 108.451 16.8574C109.262 16.8574 109.984 16.9697 110.619 17.1943C111.264 17.4092 111.811 17.751 112.26 18.2197C112.709 18.6885 113.051 19.2988 113.285 20.0508C113.52 20.793 113.637 21.6914 113.637 22.7461V33H110.092V22.7314C110.092 21.9307 109.975 21.3105 109.74 20.8711C109.516 20.4316 109.193 20.1289 108.773 19.9629C108.354 19.7871 107.851 19.6992 107.265 19.6992C106.718 19.6992 106.234 19.8018 105.814 20.0068C105.404 20.2021 105.058 20.4805 104.774 20.8418C104.491 21.1934 104.276 21.5986 104.13 22.0576C103.993 22.5166 103.925 23.0146 103.925 23.5518ZM120.8 20.373V33H117.27V17.1504H120.595L120.8 20.373ZM120.229 24.4893L119.027 24.4746C119.027 23.3809 119.164 22.3701 119.438 21.4424C119.711 20.5146 120.111 19.709 120.639 19.0254C121.166 18.332 121.82 17.7998 122.602 17.4287C123.393 17.0479 124.306 16.8574 125.341 16.8574C126.063 16.8574 126.723 16.9648 127.318 17.1797C127.924 17.3848 128.446 17.7119 128.886 18.1611C129.335 18.6104 129.677 19.1865 129.911 19.8896C130.155 20.5928 130.277 21.4424 130.277 22.4385V33H126.747V22.7461C126.747 21.9746 126.63 21.3691 126.396 20.9297C126.171 20.4902 125.844 20.1777 125.414 19.9922C124.994 19.7969 124.491 19.6992 123.905 19.6992C123.241 19.6992 122.675 19.8262 122.206 20.0801C121.747 20.334 121.371 20.6807 121.078 21.1201C120.785 21.5596 120.57 22.0674 120.434 22.6436C120.297 23.2197 120.229 23.835 120.229 24.4893ZM130.058 23.5518L128.402 23.918C128.402 22.9609 128.534 22.0576 128.798 21.208C129.071 20.3486 129.467 19.5967 129.984 18.9521C130.512 18.2979 131.161 17.7852 131.933 17.4141C132.704 17.043 133.588 16.8574 134.584 16.8574C135.395 16.8574 136.117 16.9697 136.752 17.1943C137.396 17.4092 137.943 17.751 138.393 18.2197C138.842 18.6885 139.184 19.2988 139.418 20.0508C139.652 20.793 139.77 21.6914 139.77 22.7461V33H136.225V22.7314C136.225 21.9307 136.107 21.3105 135.873 20.8711C135.648 20.4316 135.326 20.1289 134.906 19.9629C134.486 19.7871 133.983 19.6992 133.397 19.6992C132.851 19.6992 132.367 19.8018 131.947 20.0068C131.537 20.2021 131.19 20.4805 130.907 20.8418C130.624 21.1934 130.409 21.5986 130.263 22.0576C130.126 22.5166 130.058 23.0146 130.058 23.5518ZM147.182 17.1504V33H143.637V17.1504H147.182ZM143.402 12.9902C143.402 12.4531 143.578 12.0088 143.93 11.6572C144.291 11.2959 144.789 11.1152 145.424 11.1152C146.049 11.1152 146.542 11.2959 146.903 11.6572C147.265 12.0088 147.445 12.4531 147.445 12.9902C147.445 13.5176 147.265 13.957 146.903 14.3086C146.542 14.6602 146.049 14.8359 145.424 14.8359C144.789 14.8359 144.291 14.6602 143.93 14.3086C143.578 13.957 143.402 13.5176 143.402 12.9902ZM158.036 33.293C156.864 33.293 155.805 33.1025 154.857 32.7217C153.92 32.3311 153.119 31.7891 152.455 31.0957C151.801 30.4023 151.298 29.5869 150.946 28.6494C150.595 27.7119 150.419 26.7012 150.419 25.6172V25.0312C150.419 23.791 150.6 22.668 150.961 21.6621C151.322 20.6562 151.825 19.7969 152.47 19.084C153.114 18.3613 153.876 17.8096 154.755 17.4287C155.634 17.0479 156.586 16.8574 157.611 16.8574C158.744 16.8574 159.735 17.0479 160.585 17.4287C161.435 17.8096 162.138 18.3467 162.694 19.04C163.261 19.7236 163.681 20.5391 163.954 21.4863C164.237 22.4336 164.379 23.4785 164.379 24.6211V26.1299H152.133V23.5957H160.893V23.3174C160.873 22.6826 160.746 22.0869 160.512 21.5303C160.287 20.9736 159.94 20.5244 159.472 20.1826C159.003 19.8408 158.378 19.6699 157.597 19.6699C157.011 19.6699 156.488 19.7969 156.029 20.0508C155.58 20.2949 155.204 20.6514 154.901 21.1201C154.599 21.5889 154.364 22.1553 154.198 22.8193C154.042 23.4736 153.964 24.2109 153.964 25.0312V25.6172C153.964 26.3105 154.057 26.9551 154.242 27.5508C154.438 28.1367 154.721 28.6494 155.092 29.0889C155.463 29.5283 155.912 29.875 156.439 30.1289C156.967 30.373 157.567 30.4951 158.241 30.4951C159.091 30.4951 159.848 30.3242 160.512 29.9824C161.176 29.6406 161.752 29.1572 162.24 28.5322L164.101 30.334C163.759 30.832 163.314 31.3105 162.768 31.7695C162.221 32.2188 161.552 32.585 160.761 32.8682C159.979 33.1514 159.071 33.293 158.036 33.293Z" fill="#333333"/>
<path d="M25.8369 15.9274C25.8484 16.0211 25.8557 16.1155 25.8588 16.2102C25.8588 16.7999 25.2465 18.5324 23.2219 19.0982C23.8329 19.3684 24.827 19.3457 25.2374 19.2154C25.6386 21.3371 24.9702 23.0228 24.6547 23.3762C23.0039 25.2275 21.5775 27.2654 22.3997 28.7971C23.295 30.4662 25.9254 29.3983 27.2723 27.1002C27.157 29.2312 26.7336 31.8857 26.2854 34.1184C25.9911 35.584 26.8927 37 28.1166 37H32.1278C33.9406 33.2057 34.9805 28.7817 34.9805 24.0593C34.9825 21.2949 34.6205 18.5486 33.9085 15.9274H37.5912C39.1206 15.9274 39.6375 13.407 38.2928 12.5104L29.334 6.53528L19.5333 0L9.73519 6.53528L0.775454 12.5104C-0.570584 13.407 -0.053564 15.9274 1.47585 15.9274H5.15971C4.44757 18.5485 4.08553 21.2949 4.08774 24.0593C4.08774 28.7817 5.1273 33.2057 6.94017 37H10.9501C12.1743 37 13.0756 35.584 12.7816 34.1184C12.3331 31.8857 11.9096 29.2312 11.7944 27.1002C13.1416 29.3983 15.7719 30.4662 16.6669 28.7971C17.4891 27.2654 16.0628 25.2275 14.4119 23.3762C14.0964 23.0228 13.4281 21.3371 13.8295 19.2154C14.24 19.3457 15.2337 19.3684 15.8451 19.0982C13.8205 18.5324 13.2083 16.7999 13.2083 16.2102C13.2113 16.1155 13.2186 16.0211 13.2301 15.9274C13.3054 15.2287 13.6 13.4807 14.3499 11.7736C13.9816 11.6786 13.6551 11.4185 13.4334 11.0436C13.2116 10.6686 13.1106 10.2056 13.1497 9.74405C13.2228 8.85745 13.8155 8.14333 14.5358 8.07261C14.8482 8.0404 15.161 8.12834 15.4312 8.32433C15.7014 8.52032 15.9157 8.81475 16.0447 9.16713C16.6739 8.52784 17.4155 8.07897 18.2104 7.85641C18.2993 7.83172 18.3915 7.8307 18.4808 7.85341C18.5701 7.87613 18.6544 7.92206 18.7282 7.98814C18.8019 8.05423 18.8634 8.13895 18.9085 8.23666C18.9537 8.33437 18.9814 8.44282 18.9899 8.55479C19.0989 9.98769 19.1378 12.3041 19.1036 12.6744C19.0655 13.0874 17.4561 14.8964 17.1902 15.9274C17.1599 16.0291 17.1477 16.1375 17.1543 16.2455C17.2406 17.1649 18.8021 17.9612 19.5333 17.9612C20.2649 17.9612 21.8263 17.1649 21.9126 16.2455C21.9191 16.1376 21.907 16.0292 21.8771 15.9274C21.6121 14.8964 20.0023 13.0874 19.9634 12.6744C19.9289 12.3041 19.9691 9.98769 20.0771 8.55479C20.0857 8.44291 20.1135 8.33458 20.1586 8.23697C20.2037 8.13936 20.2652 8.05472 20.3389 7.98866C20.4126 7.92261 20.4968 7.87666 20.586 7.85385C20.6752 7.83105 20.7674 7.83192 20.8563 7.85641L25.8369 15.9274ZM24.5324 8.07261C25.2901 8.14759 25.8964 8.93391 25.9241 9.87007L24.5324 8.07261ZM19.5336 14.8314C19.5336 15.0761 19.2518 15.274 18.903 15.274C18.5557 15.274 18.2727 15.0761 18.2727 14.8314C18.2727 14.5883 18.5557 14.3901 18.903 14.3901C19.2518 14.3901 19.5336 14.5883 19.5336 14.8314Z" fill="#2B67F6"/>
<path d="M11.4344 8.07261L20.6308 4.80389L29.3537 9.87006L28.948 37H10.9501" fill="#2B67F6"/>
<path d="M27 14C25.6328 15.7979 23.8503 20.6716 22.967 22.4248C22.3213 23.7064 21.9334 24.7437 20.3979 25.0768C18.8484 25.4129 17.3594 24.0854 16.1684 22.6682C14.2924 20.4361 13.3575 16.6042 13.0211 15.5065C12.7391 20.2029 15.3545 29.6079 16.5132 32C18.1728 31.3337 21.2206 29.8146 25.7127 30.8984C25.1858 27.2166 25.6819 18.7695 27 14Z" fill="white"/>
<path d="M22.063 22.588C22.4563 21.1226 21.812 19.5413 20.624 19.0562C19.4359 18.5711 18.1541 19.3659 17.7608 20.8314C17.3676 22.2968 18.0118 23.878 19.1999 24.3631C20.3879 24.8482 21.6698 24.0535 22.063 22.588Z" fill="white"/>
</svg>
